<svg width="146" height="162" xmlns="http://www.w3.org/2000/svg" xmlns:xlink="http://www.w3.org/1999/xlink" xml:space="preserve" overflow="hidden"><defs><clipPath id="clip0"><rect x="224" y="279" width="146" height="162"/></clipPath><linearGradient x1="92.1972" y1="3.54432" x2="52.616" y2="158.19" gradientUnits="userSpaceOnUse" spreadMethod="pad" id="fill1"><stop offset="0" stop-color="#FF4571"/><stop offset="0.529412" stop-color="#FB7768"/><stop offset="1" stop-color="#F6AA5E"/></linearGradient><linearGradient x1="564.158" y1="127.739" x2="567.684" y2="160.988" gradientUnits="userSpaceOnUse" spreadMethod="pad" id="fill2"><stop offset="0" stop-color="#FE506F"/><stop offset="1" stop-color="#F6AA5E"/></linearGradient><linearGradient x1="695.604" y1="127.739" x2="699.121" y2="160.988" gradientUnits="userSpaceOnUse" spreadMethod="pad" id="fill3"><stop offset="0" stop-color="#FE506F"/><stop offset="1" stop-color="#F6AA5E"/></linearGradient></defs><g clip-path="url(#clip0)" transform="translate(-224 -279)"><path d="M20.6092 150.723C20.6092 153.62 19.5927 156.076 17.5687 158.1 15.5446 160.124 13.0888 161.14 10.1922 161.14 7.29554 161.14 4.87568 160.124 2.92361 158.1 0.971539 156.076-0.00899573 153.62-0.00899573 150.723L-0.00899573 11.0018C-0.00899573 8.10515 1.00752 5.64932 3.03156 3.62528 5.0556 1.60124 7.51143 0.584722 10.4081 0.584722 13.3047 0.584722 15.7245 1.60124 17.6766 3.62528 19.6287 5.64932 20.6092 8.10515 20.6092 11.0018L20.6092 150.723ZM144.804 150.723C144.804 153.62 143.788 156.076 141.764 158.1 139.74 160.124 137.284 161.14 134.387 161.14 131.491 161.14 129.071 160.124 127.119 158.1 125.167 156.076 124.195 153.62 124.195 150.723L124.195 11.0018C124.195 8.10515 125.212 5.64932 127.236 3.62528 129.26 1.60124 131.715 0.584722 134.612 0.584722 137.509 0.584722 139.929 1.60124 141.881 3.62528 143.833 5.64932 144.813 8.10515 144.813 11.0018L144.813 150.723ZM103.406 116.953C103.406 119.85 102.389 122.306 100.365 124.33 98.3413 126.354 95.8855 127.371 92.9888 127.371 90.0922 127.371 87.6724 126.354 85.7203 124.33 83.7682 122.306 82.7877 119.85 82.7877 116.953L82.7877 44.7627C82.7877 41.8661 83.8042 39.4103 85.8282 37.3862 87.8523 35.3622 90.3081 34.3457 93.2047 34.3457 96.1014 34.3457 98.5212 35.3532 100.473 37.3862 102.425 39.4103 103.406 41.8661 103.406 44.7627L103.406 116.953ZM62.0076 82.3109C62.0076 85.1985 60.991 87.6634 58.967 89.6874 56.943 91.7114 54.4871 92.728 51.5905 92.728 48.6939 92.728 46.274 91.7114 44.322 89.6874 42.3699 87.6634 41.3893 85.2075 41.3893 82.3109L41.3893 79.3963C41.3893 76.4997 42.4059 74.0438 44.4299 72.0198 46.4539 69.9958 48.9098 68.9792 51.8064 68.9792 54.703 68.9792 57.1229 69.9958 59.0749 72.0198 61.027 74.0438 62.0076 76.4997 62.0076 79.3963L62.0076 82.3109Z" fill="url(#fill1)" transform="matrix(1.00027 0 0 1 224 279.43)"/><path d="M555.855 153.935C556.341 155.482 557.195 156.877 558.428 158.1 560.452 160.124 562.908 161.14 565.804 161.14 568.701 161.14 571.121 160.124 573.073 158.1 575.025 156.076 576.005 153.62 576.005 150.723L576.005 127.586C574.989 130.132 573.802 132.597 572.452 134.99 568.152 142.609 562.62 148.915 555.864 153.926Z" fill="url(#fill2)" transform="matrix(1.00027 0 0 1 224 279.43)"/><path d="M555.378 78.1009 555.378 11.0018C555.378 8.10515 556.395 5.64932 558.419 3.62528 560.443 1.60124 562.899 0.584722 565.795 0.584722 568.692 0.584722 571.112 1.60124 573.064 3.62528 575.016 5.64932 575.996 8.10515 575.996 11.0018L575.996 104.935C575.007 102.452 573.855 100.041 572.551 97.7026 568.125 89.7414 562.404 83.2105 555.387 78.1009Z" fill="#FEFEFC" transform="matrix(1.00027 0 0 1 224 279.43)"/><path d="M687.292 153.935C687.777 155.482 688.632 156.877 689.864 158.1 691.888 160.124 694.344 161.14 697.241 161.14 700.138 161.14 702.557 160.124 704.509 158.1 706.462 156.076 707.442 153.62 707.442 150.723L707.442 127.586C706.426 130.132 705.238 132.597 703.889 134.99 699.589 142.609 694.056 148.915 687.301 153.926Z" fill="url(#fill3)" transform="matrix(1.00027 0 0 1 224 279.43)"/><path d="M686.824 129.503 686.824 150.723C686.824 153.62 687.84 156.076 689.864 158.1 691.888 160.124 694.344 161.14 697.241 161.14 700.138 161.14 702.557 160.124 704.509 158.1 706.462 156.076 707.442 153.62 707.442 150.723L707.442 102.668C706.453 105.142 705.301 107.562 703.997 109.901 699.571 117.862 693.85 124.393 686.833 129.503Z" fill="#FEFEFC" transform="matrix(1.00027 0 0 1 224 279.43)"/><path d="M753.662 150.705C753.662 153.602 752.646 156.058 750.622 158.082 748.598 160.106 746.142 161.122 743.245 161.122 740.348 161.122 737.929 160.106 735.977 158.082 734.024 156.058 733.044 153.602 733.044 150.705L733.044 11.0018C733.044 8.10515 734.06 5.64932 736.084 3.62528 738.109 1.60124 740.564 0.584722 743.461 0.584722 746.358 0.584722 748.777 1.60124 750.729 3.62528 752.682 5.64932 753.662 8.10515 753.662 11.0018L753.662 150.705ZM707.46 102.138C707.46 113.418 704.932 123.538 699.868 132.507 694.803 141.476 687.903 148.483 679.151 153.548 670.398 158.613 660.745 161.14 650.193 161.14 639.632 161.14 629.98 158.613 621.236 153.548 612.483 148.483 605.583 141.476 600.519 132.507 595.454 123.538 592.926 113.418 592.926 102.138 592.926 90.8569 595.454 80.6647 600.519 71.552 605.583 62.4394 612.483 55.3507 621.236 50.2951 629.989 45.2305 639.641 42.7027 650.193 42.7027 660.754 42.7027 670.407 45.2305 679.151 50.2951 687.903 55.3597 694.803 62.4394 699.868 71.552 704.932 80.6647 707.46 90.8569 707.46 102.138ZM686.851 102.138C686.851 94.3292 685.223 87.3485 681.966 81.2044 678.71 75.0604 674.302 70.2836 668.733 66.8832 663.165 63.4829 656.985 61.7827 650.184 61.7827 643.384 61.7827 637.203 63.4829 631.635 66.8832 626.067 70.2836 621.659 75.0514 618.402 81.2044 615.146 87.3485 613.518 94.3292 613.518 102.138 613.518 109.802 615.146 116.675 618.402 122.747 621.659 128.819 626.067 133.56 631.635 136.96 637.203 140.36 643.384 142.061 650.184 142.061 656.985 142.061 663.165 140.36 668.733 136.96 674.302 133.56 678.71 128.828 681.966 122.747 685.223 116.675 686.851 109.802 686.851 102.138ZM575.996 102.138C575.996 113.418 573.469 123.538 568.404 132.507 563.339 141.476 556.44 148.483 547.687 153.548 538.934 158.613 529.282 161.14 518.73 161.14 508.169 161.14 498.516 158.613 489.772 153.548 481.02 148.483 474.12 141.476 469.055 132.507 463.991 123.538 461.463 113.418 461.463 102.138 461.463 90.8569 463.991 80.6647 469.055 71.552 474.12 62.4394 481.02 55.3507 489.772 50.2951 498.525 45.2305 508.178 42.7027 518.73 42.7027 529.291 42.7027 538.943 45.2305 547.687 50.2951 556.44 55.3597 563.339 62.4394 568.404 71.552 573.469 80.6647 575.996 90.8569 575.996 102.138ZM555.387 102.138C555.387 94.3292 553.759 87.3485 550.503 81.2044 547.246 75.0604 542.838 70.2836 537.27 66.8832 531.702 63.4829 525.521 61.7827 518.721 61.7827 511.92 61.7827 505.74 63.4829 500.172 66.8832 494.603 70.2836 490.195 75.0514 486.939 81.2044 483.682 87.3485 482.054 94.3292 482.054 102.138 482.054 109.802 483.682 116.675 486.939 122.747 490.195 128.819 494.603 133.56 500.172 136.96 505.74 140.36 511.92 142.061 518.721 142.061 525.521 142.061 531.702 140.36 537.27 136.96 542.838 133.56 547.246 128.828 550.503 122.747 553.759 116.675 555.387 109.802 555.387 102.138ZM444.533 102.138C444.533 113.418 442.005 123.538 436.941 132.507 431.876 141.476 424.976 148.483 416.223 153.548 407.471 158.613 397.818 161.14 387.266 161.14 376.705 161.14 367.053 158.613 358.309 153.548 349.556 148.483 342.656 141.476 337.592 132.507 332.527 123.538 329.999 113.418 329.999 102.138 329.999 90.8569 332.527 80.6647 337.592 71.552 342.656 62.4394 349.556 55.3507 358.309 50.2951 367.062 45.2305 376.714 42.7027 387.266 42.7027 397.827 42.7027 407.48 45.2305 416.223 50.2951 424.976 55.3597 431.876 62.4394 436.941 71.552 442.005 80.6647 444.533 90.8569 444.533 102.138ZM423.924 102.138C423.924 94.3292 422.295 87.3485 419.039 81.2044 415.783 75.0604 411.375 70.2836 405.806 66.8832 400.238 63.4829 394.058 61.7827 387.257 61.7827 380.456 61.7827 374.276 63.4829 368.708 66.8832 363.14 70.2836 358.732 75.0514 355.475 81.2044 352.219 87.3485 350.591 94.3292 350.591 102.138 350.591 109.802 352.219 116.675 355.475 122.747 358.732 128.819 363.14 133.56 368.708 136.96 374.276 140.36 380.456 142.061 387.257 142.061 394.058 142.061 400.238 140.36 405.806 136.96 411.375 133.56 415.783 128.828 419.039 122.747 422.295 116.675 423.924 109.802 423.924 102.138ZM243.658 99.079 243.658 123.808 243.658 150.705C243.658 153.602 242.687 156.058 240.726 158.082 238.774 160.106 236.354 161.122 233.457 161.122 230.417 161.122 227.925 160.106 225.973 158.082 224.021 156.058 223.04 153.602 223.04 150.705L223.04 11.0018C223.04 8.10515 224.021 5.64932 225.973 3.62528 227.925 1.60124 230.417 0.584722 233.457 0.584722 236.354 0.584722 238.774 1.60124 240.726 3.62528 242.678 5.64932 243.658 8.10515 243.658 11.0018L243.658 99.079ZM253.14 91.2707 253.14 91.2707 294.871 50.457C297.219 48.1631 299.999 47.0207 302.607 47.0207 307.321 47.0207 312.098 52.1302 312.098 56.781 312.098 59.6777 310.587 62.1245 307.978 64.5893L271.455 99.079 312.107 143.113C314.257 145.443 315.363 147.953 315.363 150.705 315.363 156.193 310.308 160.898 304.946 160.898 301.762 160.898 299.045 158.928 297.075 156.688L252.645 106.348C252.573 106.267 252.501 106.186 252.429 106.105L252.42 106.096 252.42 106.096C250.801 104.207 249.82 101.94 249.82 99.061 249.82 96.1823 251.098 93.2317 253.14 91.2617Z" fill="#FEFEFC" transform="matrix(1.00027 0 0 1 224 279.43)"/><text fill="#FEFEFE" font-family="Arial,Arial_MSFontService,sans-serif" font-weight="400" font-size="38" transform="matrix(0.899812 0 0 0.899573 1008.18 304)">TM</text></g></svg>